<svg xmlns="http://www.w3.org/2000/svg" viewBox="0 0 11 13.75" fill="none" x="0px" y="0px"><path d="M10.6211 0H8.02999C7.89738 0 7.7702 0.0526784 7.67643 0.146447C7.58266 0.240215 7.52999 0.367392 7.52999 0.5C7.52999 0.632608 7.58266 0.759785 7.67643 0.853553C7.7702 0.947322 7.89738 1 8.02999 1H8.91379L6.38569 3.5283C6.2926 3.62221 6.2405 3.74917 6.24078 3.8814C6.24107 4.01363 6.29373 4.14035 6.38723 4.23385C6.48073 4.32735 6.60746 4.38001 6.73969 4.3803C6.87192 4.38059 6.99888 4.32849 7.09279 4.2354L9.62109 1.707V2.5918C9.62109 2.72441 9.67376 2.85159 9.76753 2.94535C9.8613 3.03912 9.98848 3.0918 10.1211 3.0918C10.2537 3.0918 10.3809 3.03912 10.4746 2.94535C10.5684 2.85159 10.6211 2.72441 10.6211 2.5918V0Z" fill="black"/><path d="M4.2354 6.3857C4.14163 6.29194 4.01446 6.23926 3.88185 6.23926C3.74924 6.23926 3.62207 6.29194 3.5283 6.3857L1 8.9148V8.03C1 7.89739 0.947322 7.77022 0.853553 7.67645C0.759785 7.58268 0.632608 7.53 0.5 7.53C0.367392 7.53 0.240215 7.58268 0.146447 7.67645C0.0526784 7.77022 0 7.89739 0 8.03V10.6218H2.5908C2.72341 10.6218 2.85059 10.5691 2.94435 10.4754C3.03812 10.3816 3.0908 10.2544 3.0908 10.1218C3.0908 9.98919 3.03812 9.86202 2.94435 9.76825C2.85059 9.67448 2.72341 9.6218 2.5908 9.6218H1.7068L4.2354 7.0928C4.32917 6.99903 4.38184 6.87186 4.38184 6.73925C4.38184 6.60664 4.32917 6.47947 4.2354 6.3857Z" fill="black"/><path d="M7.52999 10.1221C7.52999 10.2547 7.58266 10.3819 7.67643 10.4757C7.7702 10.5694 7.89738 10.6221 8.02999 10.6221H10.6208V8.03C10.6208 7.89739 10.5681 7.77022 10.4743 7.67645C10.3806 7.58268 10.2534 7.53 10.1208 7.53C9.98818 7.53 9.861 7.58268 9.76723 7.67645C9.67346 7.77022 9.62078 7.89739 9.62078 8.03V8.9145L7.09279 6.3857C6.99888 6.29261 6.87192 6.24051 6.73969 6.2408C6.60746 6.24109 6.48073 6.29375 6.38723 6.38725C6.29373 6.48075 6.24107 6.60748 6.24078 6.7397C6.2405 6.87193 6.2926 6.99889 6.38569 7.0928L8.91429 9.6221H8.02999C7.89738 9.6221 7.7702 9.67478 7.67643 9.76855C7.58266 9.86232 7.52999 9.98949 7.52999 10.1221Z" fill="black"/><path d="M4.2354 3.5283L1.707 1H2.5908C2.72341 1 2.85059 0.947322 2.94435 0.853553C3.03812 0.759785 3.0908 0.632608 3.0908 0.5C3.0908 0.367392 3.03812 0.240215 2.94435 0.146447C2.85059 0.0526784 2.72341 0 2.5908 0H0V2.5918C0 2.72441 0.0526784 2.85159 0.146447 2.94535C0.240215 3.03912 0.367392 3.0918 0.5 3.0918C0.632608 3.0918 0.759785 3.03912 0.853553 2.94535C0.947322 2.85159 1 2.72441 1 2.5918V1.707L3.5283 4.2354C3.62221 4.32849 3.74917 4.38059 3.8814 4.3803C4.01363 4.38001 4.14035 4.32735 4.23385 4.23385C4.32735 4.14035 4.38001 4.01363 4.3803 3.8814C4.38059 3.74917 4.32849 3.62221 4.2354 3.5283Z" fill="black"/><text x="0" y="26" fill="#000000" font-size="5px" font-weight="bold" font-family="'Helvetica Neue', Helvetica, Arial-Unicode, Arial, Sans-serif">Created by Oliver Silvérus</text><text x="0" y="31" fill="#000000" font-size="5px" font-weight="bold" font-family="'Helvetica Neue', Helvetica, Arial-Unicode, Arial, Sans-serif">from the Noun Project</text></svg>