<?xml version="1.0" encoding="UTF-8"?>
<!DOCTYPE svg PUBLIC "-//W3C//DTD SVG 1.1//EN" "http://www.w3.org/Graphics/SVG/1.1/DTD/svg11.dtd">
<!-- Creator: CorelDRAW -->
<svg xmlns="http://www.w3.org/2000/svg" xml:space="preserve" width="0.846299in" height="0.759555in" version="1.1" style="shape-rendering:geometricPrecision; text-rendering:geometricPrecision; image-rendering:optimizeQuality; fill-rule:evenodd; clip-rule:evenodd"
viewBox="0 0 714.44 641.21"
 xmlns:xlink="http://www.w3.org/1999/xlink"
 xmlns:xodm="http://www.corel.com/coreldraw/odm/2003">
 <defs>
  <style type="text/css">
   <![CDATA[
    .fil0 {fill:black;fill-rule:nonzero}
   ]]>
  </style>
 </defs>
 <g id="Layer_x0020_1">
  <metadata id="CorelCorpID_0Corel-Layer"/>
  <path class="fil0" d="M714.44 393.89c0,136.37 -110.95,247.32 -247.32,247.32l-366.41 0c-15.18,0 -27.48,-12.3 -27.48,-27.48 0,-15.18 12.3,-27.48 27.48,-27.48l366.41 -0c106.07,0 192.36,-86.29 192.36,-192.36 0,-106.08 -86.29,-192.36 -192.36,-192.36l-373.32 0 99.65 99.65c10.75,10.75 10.75,28.13 0,38.89 -5.36,5.36 -12.4,8.07 -19.41,8.07 -7.04,0 -14.09,-2.68 -19.41,-8.07l-146.57 -146.57c-10.75,-10.75 -10.75,-28.13 0,-38.89l146.5 -146.54c10.75,-10.75 28.13,-10.75 38.89,0 10.75,10.75 10.75,28.13 0,38.89l-99.65 99.65 373.31 -0c136.37,0 247.32,110.95 247.32,247.32l0 -0.03z"/>
 </g>
</svg>
