<?xml version="1.0" encoding="UTF-8"?>
<!DOCTYPE svg PUBLIC "-//W3C//DTD SVG 1.1//EN" "http://www.w3.org/Graphics/SVG/1.1/DTD/svg11.dtd">
<!-- Creator: CorelDRAW -->
<svg xmlns="http://www.w3.org/2000/svg" xml:space="preserve" width="0.846299in" height="0.759543in" version="1.1" style="shape-rendering:geometricPrecision; text-rendering:geometricPrecision; image-rendering:optimizeQuality; fill-rule:evenodd; clip-rule:evenodd"
viewBox="0 0 63.66 57.13"
 xmlns:xlink="http://www.w3.org/1999/xlink"
 xmlns:xodm="http://www.corel.com/coreldraw/odm/2003">
 <defs>
  <style type="text/css">
   <![CDATA[
    .fil0 {fill:white;fill-rule:nonzero}
   ]]>
  </style>
 </defs>
 <g id="Layer_x0020_1">
  <metadata id="CorelCorpID_0Corel-Layer"/>
  <path class="fil0" d="M63.66 35.1c0,12.15 -9.89,22.04 -22.04,22.04l-32.65 0c-1.35,0 -2.45,-1.1 -2.45,-2.45 0,-1.35 1.1,-2.45 2.45,-2.45l32.65 0c9.45,0 17.14,-7.69 17.14,-17.14 0,-9.45 -7.69,-17.14 -17.14,-17.14l-33.26 0 8.88 8.88c0.96,0.96 0.96,2.51 0,3.47 -0.48,0.48 -1.1,0.72 -1.73,0.72 -0.63,0 -1.26,-0.24 -1.73,-0.72l-13.06 -13.06c-0.96,-0.96 -0.96,-2.51 0,-3.47l13.05 -13.06c0.96,-0.96 2.51,-0.96 3.47,0 0.96,0.96 0.96,2.51 0,3.47l-8.88 8.88 33.26 0c12.15,0 22.04,9.89 22.04,22.04l0 -0 0 -0z"/>
 </g>
</svg>
