<?xml version="1.0" encoding="UTF-8"?>
<!DOCTYPE svg PUBLIC "-//W3C//DTD SVG 1.1//EN" "http://www.w3.org/Graphics/SVG/1.1/DTD/svg11.dtd">
<!-- Creator: CorelDRAW -->
<svg xmlns="http://www.w3.org/2000/svg" xml:space="preserve" width="3.07946in" height="3.24723in" version="1.1" style="shape-rendering:geometricPrecision; text-rendering:geometricPrecision; image-rendering:optimizeQuality; fill-rule:evenodd; clip-rule:evenodd"
viewBox="0 0 1765.27 1861.44"
 xmlns:xlink="http://www.w3.org/1999/xlink"
 xmlns:xodm="http://www.corel.com/coreldraw/odm/2003">
 <defs>
  <style type="text/css">
   <![CDATA[
    .fil0 {fill:white;fill-rule:nonzero}
   ]]>
  </style>
 </defs>
 <g id="Layer_x0020_1">
  <metadata id="CorelCorpID_0Corel-Layer"/>
  <path class="fil0" d="M655.1 536.7c-140.77,81.24 -227.47,231.49 -227.47,394.01 0,251.23 203.73,454.96 454.96,454.96 251.23,0 454.97,-203.73 454.97,-454.96 0,-79.82 -21.05,-158.36 -60.93,-227.46 -81.42,-140.62 -231.68,-227.32 -394.22,-227.32 -79.75,0 -158.21,21.02 -227.28,60.78l-0.03 -0.02zm396.81 687.3c-51.42,29.68 -109.87,45.34 -169.27,45.34 -186.97,0 -338.6,-151.62 -338.6,-338.6 0,-186.97 151.63,-338.6 338.6,-338.6 120.96,0 232.74,64.57 293.22,169.28 29.59,51.37 45.23,109.82 45.23,169.17 0,120.99 -64.49,232.82 -169.16,293.41l-0.02 0.01zm648.95 -130.66l-86.55 -50.04c5.63,-37.34 8.63,-75.33 8.63,-113.13 0,-41.99 -3.65,-84.17 -10.66,-125.53l84.07 -48.57c39.86,-22.74 64.47,-65.15 64.47,-111.06 0,-15.76 -2.93,-31.43 -8.61,-46.14 -36.98,-96.85 -90.21,-187.21 -156.93,-266.72 -24.33,-29.18 -60.43,-46.05 -98.44,-46.05 -22.58,0 -44.77,5.98 -64.3,17.29l-86.38 49.87c-62.45,-49.92 -132.84,-89.68 -207.8,-117.3l-0.02 -97.36c0,-0.17 0,-0.33 0,-0.49 0,-63.07 -46,-116.75 -108.32,-126.42 -48.55,-7.72 -98.15,-11.71 -147.4,-11.71 -54.27,0 -108.76,4.79 -162.12,14.14 -61.45,10.76 -106.31,64.11 -106.31,126.47 0,0.05 0,0.13 0,0.18l-0.01 99.84c-74.47,28.98 -144.06,70 -205.55,121.13l-84.2 -48.62c-19.58,-11.32 -41.82,-17.35 -64.45,-17.35 -38.73,0 -75.41,17.57 -99.69,47.75 -65.38,80.48 -117.05,171.73 -152.52,269.26 -5.1,14.11 -7.77,29.05 -7.77,44.09 0,45.91 24.53,88.33 64.31,111.22l86.55 50.04c-5.72,37.4 -8.63,75.27 -8.63,113.13 0,41.96 3.64,84.2 10.65,125.53l-84.07 48.57c-39.85,22.73 -64.46,65.14 -64.46,111.04 0,15.77 2.93,31.43 8.61,46.14 36.98,96.86 90.21,187.21 156.93,266.73 24.34,29.18 60.41,46.05 98.43,46.05 22.57,0 44.78,-5.97 64.31,-17.28l86.42 -49.89c62.48,49.85 132.78,89.7 207.74,117.32l0 97.39c0.04,0.11 0.04,0.27 0.04,0.43 0,63.09 45.98,116.76 108.32,126.46 48.66,7.79 97.99,11.67 147.33,11.67 54.35,0 108.82,-4.8 162.27,-14.16 61.39,-10.73 106.24,-64.09 106.24,-126.44 0,-0.05 0,-0.13 0,-0.17l0 -99.84c74.5,-29.15 144.01,-70.19 205.56,-121.2l84.2 48.62c19.57,11.42 41.83,17.44 64.46,17.44 38.72,0 75.4,-17.57 99.68,-47.74 65.34,-80.6 117.14,-171.76 152.61,-269.31 5.12,-14.09 7.77,-29 7.77,-44.03 0,-45.94 -24.58,-88.39 -64.41,-111.26l0 -0.01zm-52.79 115.59c-31.04,85.47 -76.41,165.22 -133.67,235.79 -2.22,2.94 -5.68,4.64 -9.35,4.64 -2.18,0 -4.33,-0.6 -6.19,-1.75l-120.37 -69.49c-8.84,-5.09 -18.89,-7.79 -29.09,-7.79 -14.76,0 -28.98,5.63 -39.75,15.7 -67.2,62.65 -147.5,110.08 -234.9,138.49 -23.99,7.79 -40.24,30.14 -40.24,55.34l0 140.8c0.01,0.14 0.01,0.27 0.01,0.41 0,5.81 -4.26,10.75 -10.01,11.6 -46.73,8.23 -94.47,12.43 -142.01,12.43 -43.15,0 -86.49,-3.49 -129.04,-10.29 -5.86,-0.73 -10.26,-5.75 -10.26,-11.68 0,-0.09 0,-0.19 0,-0.28l-0.01 -139.24c0.01,-25.64 -16.79,-48.26 -41.33,-55.68 -87.89,-26.63 -169.13,-72.46 -237.41,-133.85 -10.66,-9.61 -24.55,-14.97 -38.94,-14.97 -10.22,0 -20.26,2.7 -29.1,7.82l-121.91 70.39c-1.85,1.15 -4,1.76 -6.19,1.76 -3.62,0 -7.03,-1.66 -9.26,-4.5 -58.46,-69.61 -104.9,-148.77 -137.42,-233.65 -0.62,-1.44 -0.92,-2.97 -0.92,-4.52 0,-4.34 2.38,-8.34 6.2,-10.42l120.33 -69.47c17.99,-10.38 29.08,-29.59 29.08,-50.37 0,-4.46 -0.52,-8.92 -1.53,-13.26 -10.72,-46.39 -16.23,-94.09 -16.23,-141.79 0,-43.87 4.67,-87.89 13.78,-130.77 0.85,-3.96 1.28,-8.05 1.28,-12.14 0,-20.78 -11.1,-39.98 -29.08,-50.38l-122.09 -70.45c-3.81,-2.07 -6.2,-6.05 -6.2,-10.39 0,-1.5 0.29,-2.98 0.84,-4.36 31.03,-85.37 76.39,-165.28 133.63,-235.82 2.25,-2.91 5.72,-4.62 9.4,-4.62 2.18,0 4.32,0.6 6.18,1.74l120.37 69.49c8.84,5.1 18.89,7.8 29.1,7.8 14.76,0 28.98,-5.63 39.75,-15.7 67.15,-62.76 147.51,-110.19 234.92,-138.58 23.99,-7.77 40.24,-30.12 40.24,-55.32l-0.02 -140.82c0.01,-0.13 0.01,-0.26 0.01,-0.39 0,-5.82 4.26,-10.76 10.02,-11.62 46.73,-8.22 94.47,-12.42 142,-12.42 43.15,0 86.49,3.5 129.04,10.29 5.86,0.73 10.26,5.75 10.26,11.68 0,0.09 0,0.19 0,0.28l0 139.2c-0.01,0.02 -0.01,0.05 -0.01,0.07 0,25.62 16.81,48.22 41.33,55.59 87.89,26.62 169.14,72.45 237.42,133.85 10.7,9.61 24.59,14.95 38.98,14.95 10.2,0 20.25,-2.69 29.08,-7.79l121.87 -70.35c1.87,-1.14 4.02,-1.76 6.21,-1.76 3.61,0 7.02,1.66 9.24,4.49 58.47,69.64 104.91,148.8 137.44,233.68 0.62,1.42 0.92,2.96 0.92,4.5 0,4.34 -2.38,8.34 -6.2,10.42l-120.33 69.47c-17.99,10.39 -29.08,29.61 -29.08,50.39 0,4.46 0.52,8.92 1.53,13.26 10.71,46.39 16.23,94.09 16.23,141.8 0,43.87 -4.67,87.82 -13.78,130.71 -0.85,4.03 -1.28,8.11 -1.28,12.2 0,20.78 11.09,39.99 29.09,50.37l122.09 70.47c3.81,2.04 6.2,6.02 6.2,10.35 0,1.53 -0.3,3.04 -0.88,4.46l0.01 0.01z"/>
 </g>
</svg>
