<?xml version="1.0" encoding="UTF-8"?>
<!DOCTYPE svg PUBLIC "-//W3C//DTD SVG 1.1//EN" "http://www.w3.org/Graphics/SVG/1.1/DTD/svg11.dtd">
<!-- Creator: CorelDRAW -->
<svg xmlns="http://www.w3.org/2000/svg" xml:space="preserve" width="3.29769in" height="3.29769in" version="1.1" style="shape-rendering:geometricPrecision; text-rendering:geometricPrecision; image-rendering:optimizeQuality; fill-rule:evenodd; clip-rule:evenodd"
viewBox="0 0 9942.55 9942.55"
 xmlns:xlink="http://www.w3.org/1999/xlink"
 xmlns:xodm="http://www.corel.com/coreldraw/odm/2003">
 <defs>
  <style type="text/css">
   <![CDATA[
    .fil0 {fill:white}
   ]]>
  </style>
 </defs>
 <g id="Layer_x0020_1">
  <metadata id="CorelCorpID_0Corel-Layer"/>
  <path class="fil0" d="M4971.28 9942.55c-2745.45,0 -4971.28,-2225.79 -4971.28,-4971.28 0,-2745.49 2225.79,-4971.28 4971.28,-4971.28 2745.49,0 4971.28,2225.79 4971.28,4971.23 0,2745.45 -2225.79,4971.24 -4971.28,4971.24l0 0.08zm0 -662.84c2379.48,0 4308.44,-1928.95 4308.44,-4308.44 0,-2379.48 -1928.95,-4308.44 -4308.44,-4308.44 1189.8,0 2154.22,964.46 2154.22,2154.21 0,1185.8 -980.88,2138.19 -2154.22,2154.22 -1173.35,16.04 -2154.22,968.34 -2154.22,2154.22 0,1189.8 964.46,2154.21 2154.22,2154.21z"/>
 </g>
</svg>
