<?xml version="1.0" encoding="UTF-8"?>
<!DOCTYPE svg PUBLIC "-//W3C//DTD SVG 1.1//EN" "http://www.w3.org/Graphics/SVG/1.1/DTD/svg11.dtd">
<!-- Creator: CorelDRAW -->
<svg xmlns="http://www.w3.org/2000/svg" xml:space="preserve" width="3.12083in" height="2.2292in" version="1.1" style="shape-rendering:geometricPrecision; text-rendering:geometricPrecision; image-rendering:optimizeQuality; fill-rule:evenodd; clip-rule:evenodd"
viewBox="0 0 891.7 636.94"
 xmlns:xlink="http://www.w3.org/1999/xlink"
 xmlns:xodm="http://www.corel.com/coreldraw/odm/2003">
 <defs>
  <style type="text/css">
   <![CDATA[
    .fil0 {fill:white;fill-rule:nonzero}
   ]]>
  </style>
 </defs>
 <g id="Layer_x0020_1">
  <metadata id="CorelCorpID_0Corel-Layer"/>
  <path class="fil0" d="M617.83 254.77l-598.71 0c-9.56,0 -19.11,9.56 -19.11,19.1l0 89.16c0,9.57 9.56,19.11 19.11,19.11l598.71 0c9.56,0 19.11,-9.56 19.11,-19.11l0 -89.16c-0.01,-9.54 -9.57,-19.1 -19.11,-19.1zm254.76 0l-89.17 0c-9.56,0 -19.11,9.56 -19.11,19.11l0 89.17c0,9.56 9.56,19.11 19.11,19.11l89.17 -0.01c9.56,0 19.11,-9.56 19.11,-19.11l0 -89.16c0,-9.54 -9.56,-19.1 -19.11,-19.1zm-254.76 254.77l-598.71 0c-9.56,0 -19.11,9.54 -19.11,19.1l0 89.17c0,9.56 9.56,19.11 19.11,19.11l598.71 0c9.56,0 19.11,-9.56 19.11,-19.11l0 -89.17c-0.01,-9.56 -9.57,-19.1 -19.11,-19.1zm254.76 0l-89.17 0c-9.56,0 -19.11,9.56 -19.11,19.11l0 89.17c0,9.56 9.56,19.11 19.11,19.11l89.17 -0.01c9.56,0 19.11,-9.56 19.11,-19.11l0 -89.17c0,-9.56 -9.56,-19.1 -19.11,-19.1zm-254.76 -509.55l-598.71 0c-9.56,0 -19.11,9.56 -19.11,19.11l0 89.17c0,9.56 9.56,19.11 19.11,19.11l598.71 0c9.56,0 19.11,-9.56 19.11,-19.11l-0.01 -89.17c0,-9.56 -9.56,-19.11 -19.1,-19.11zm254.76 0l-89.17 0c-9.56,0 -19.11,9.56 -19.11,19.11l0 89.17c0,9.56 9.56,19.11 19.11,19.11l89.17 0c9.56,0 19.11,-9.56 19.11,-19.11l0 -89.17c0,-9.56 -9.56,-19.11 -19.11,-19.11z"/>
 </g>
</svg>
