<?xml version="1.0" encoding="UTF-8"?>
<!DOCTYPE svg PUBLIC "-//W3C//DTD SVG 1.1//EN" "http://www.w3.org/Graphics/SVG/1.1/DTD/svg11.dtd">
<!-- Creator: CorelDRAW -->
<svg xmlns="http://www.w3.org/2000/svg" xml:space="preserve" width="1.91873in" height="1.90881in" version="1.1" style="shape-rendering:geometricPrecision; text-rendering:geometricPrecision; image-rendering:optimizeQuality; fill-rule:evenodd; clip-rule:evenodd"
viewBox="0 0 679.23 675.72"
 xmlns:xlink="http://www.w3.org/1999/xlink"
 xmlns:xodm="http://www.corel.com/coreldraw/odm/2003">
 <defs>
  <style type="text/css">
   <![CDATA[
    .fil0 {fill:black;fill-rule:nonzero}
   ]]>
  </style>
 </defs>
 <g id="Layer_x0020_1">
  <metadata id="CorelCorpID_0Corel-Layer"/>
  <path class="fil0" d="M679.23 0l-184.71 0c-9.46,0 -18.51,3.74 -25.22,10.43 -6.68,6.68 -10.43,15.76 -10.43,25.22 0,9.46 3.74,18.51 10.43,25.19 6.71,6.68 15.76,10.45 25.22,10.45l62.99 0 -180.21 180.21c-6.63,6.71 -10.35,15.76 -10.32,25.16 0.03,9.43 3.77,18.48 10.43,25.14 6.68,6.65 15.71,10.43 25.14,10.43 9.43,0.03 18.48,-3.69 25.16,-10.32l180.24 -180.24 0 63.07c0,9.46 3.74,18.54 10.43,25.22 6.68,6.68 15.76,10.43 25.22,10.43 9.43,0 18.51,-3.74 25.19,-10.43 6.68,-6.68 10.45,-15.76 10.45,-25.22l0 -184.74z"/>
  <path class="fil0" d="M301.91 373.76c-6.68,-6.68 -15.73,-10.43 -25.19,-10.43 -9.46,0 -18.54,3.74 -25.22,10.43l-180.21 180.29 0 -63.07c0,-9.46 -3.77,-18.51 -10.45,-25.19 -6.68,-6.71 -15.73,-10.45 -25.19,-10.45 -9.46,0 -18.54,3.74 -25.22,10.45 -6.68,6.68 -10.43,15.73 -10.43,25.19l0 184.74 184.69 0c9.46,0 18.51,-3.74 25.19,-10.43 6.68,-6.68 10.45,-15.76 10.45,-25.22 0,-9.43 -3.77,-18.51 -10.45,-25.19 -6.68,-6.68 -15.73,-10.43 -25.19,-10.43l-63.02 0 180.24 -180.29c6.68,-6.68 10.45,-15.73 10.45,-25.19 0,-9.46 -3.77,-18.54 -10.45,-25.22z"/>
 </g>
</svg>
