<?xml version="1.0" encoding="UTF-8"?>
<!DOCTYPE svg PUBLIC "-//W3C//DTD SVG 1.1//EN" "http://www.w3.org/Graphics/SVG/1.1/DTD/svg11.dtd">
<!-- Creator: CorelDRAW -->
<svg xmlns="http://www.w3.org/2000/svg" xml:space="preserve" width="1.91873in" height="1.9088in" version="1.1" style="shape-rendering:geometricPrecision; text-rendering:geometricPrecision; image-rendering:optimizeQuality; fill-rule:evenodd; clip-rule:evenodd"
viewBox="0 0 1763.35 1754.22"
 xmlns:xlink="http://www.w3.org/1999/xlink"
 xmlns:xodm="http://www.corel.com/coreldraw/odm/2003">
 <defs>
  <style type="text/css">
   <![CDATA[
    .fil0 {fill:black;fill-rule:nonzero}
   ]]>
  </style>
 </defs>
 <g id="Layer_x0020_1">
  <metadata id="CorelCorpID_0Corel-Layer"/>
  <path class="fil0" d="M952.71 810.57l479.53 0c24.55,0 48.05,-9.72 65.47,-27.07 17.35,-17.35 27.07,-40.92 27.07,-65.47 0,-24.55 -9.72,-48.05 -27.07,-65.39 -17.42,-17.35 -40.92,-27.14 -65.47,-27.14l-163.53 0 467.85 -467.84c17.2,-17.42 26.86,-40.92 26.79,-65.33 -0.07,-24.48 -9.79,-47.98 -27.07,-65.26 -17.35,-17.28 -40.77,-27.07 -65.25,-27.07 -24.48,-0.07 -47.98,9.58 -65.33,26.79l-467.92 467.92 0 -163.73c0,-24.55 -9.72,-48.12 -27.07,-65.47 -17.35,-17.35 -40.92,-27.07 -65.47,-27.07 -24.48,0 -48.05,9.72 -65.4,27.07 -17.35,17.35 -27.14,40.92 -27.14,65.47l0 479.6z"/>
  <path class="fil0" d="M27.14 1727.15c17.35,17.35 40.85,27.07 65.4,27.07 24.55,0 48.12,-9.72 65.47,-27.07l467.84 -468.06 0 163.74c0,24.55 9.79,48.05 27.14,65.39 17.35,17.42 40.85,27.14 65.39,27.14 24.55,0 48.12,-9.72 65.47,-27.14 17.35,-17.35 27.07,-40.85 27.07,-65.39l0 -479.6 -479.46 0c-24.55,0 -48.05,9.72 -65.39,27.07 -17.35,17.35 -27.14,40.91 -27.14,65.46 0,24.48 9.79,48.05 27.14,65.4 17.35,17.35 40.85,27.07 65.39,27.07l163.6 0 -467.92 468.06c-17.35,17.35 -27.14,40.85 -27.14,65.39 0,24.55 9.79,48.12 27.14,65.47z"/>
 </g>
</svg>
