<?xml version="1.0" encoding="UTF-8"?>
<!DOCTYPE svg PUBLIC "-//W3C//DTD SVG 1.1//EN" "http://www.w3.org/Graphics/SVG/1.1/DTD/svg11.dtd">
<!-- Creator: CorelDRAW -->
<svg xmlns="http://www.w3.org/2000/svg" xml:space="preserve" width="1.83885in" height="1.83495in" version="1.1" style="shape-rendering:geometricPrecision; text-rendering:geometricPrecision; image-rendering:optimizeQuality; fill-rule:evenodd; clip-rule:evenodd"
viewBox="0.48 0 248.91 254.95"
 xmlns:xlink="http://www.w3.org/1999/xlink"
 xmlns:xodm="http://www.corel.com/coreldraw/odm/2003">
 <defs>
  <style type="text/css">
   <![CDATA[
    .str0 {stroke:#373535;stroke-width:0.96;stroke-miterlimit:2.61313}
    .fil0 {fill:#373535}
   ]]>
  </style>
 </defs>
 <g id="Layer_x0020_1">
  <metadata id="CorelCorpID_0Corel-Layer"/>
  <path class="fil0 str0" d="M111.27 0.48c61.18,0 110.78,49.6 110.78,110.78 0,25.39 -8.55,48.79 -22.92,67.47l50.03 50.06c15.86,15.86 -3.78,35.78 -19.77,19.78l-49.96 -49.98c-18.79,14.69 -42.45,23.45 -68.16,23.45 -61.18,0 -110.78,-49.6 -110.78,-110.78 0,-61.18 49.6,-110.78 110.78,-110.78zm0 25.02c47.37,0 85.77,38.4 85.77,85.77 0,47.37 -38.4,85.77 -85.77,85.77 -47.37,0 -85.77,-38.4 -85.77,-85.77 0,-47.37 38.4,-85.77 85.77,-85.77z"/>
 </g>
</svg>
