<?xml version="1.0" encoding="UTF-8"?>
<!DOCTYPE svg PUBLIC "-//W3C//DTD SVG 1.1//EN" "http://www.w3.org/Graphics/SVG/1.1/DTD/svg11.dtd">
<!-- Creator: CorelDRAW -->
<svg xmlns="http://www.w3.org/2000/svg" xml:space="preserve" width="1.88163in" height="1.87654in" version="1.1" style="shape-rendering:geometricPrecision; text-rendering:geometricPrecision; image-rendering:optimizeQuality; fill-rule:evenodd; clip-rule:evenodd"
viewBox="0 0 746.64 744.62"
 xmlns:xlink="http://www.w3.org/1999/xlink"
 xmlns:xodm="http://www.corel.com/coreldraw/odm/2003">
 <defs>
  <style type="text/css">
   <![CDATA[
    .fil0 {fill:black;fill-rule:nonzero}
   ]]>
  </style>
 </defs>
 <g id="Layer_x0020_1">
  <metadata id="CorelCorpID_0Corel-Layer"/>
  <path class="fil0" d="M95.44 581.15l96.56 0 210.2 147.14c15.39,10.79 33.41,16.33 51.57,16.33 14.17,0 28.48,-3.38 41.57,-10.23 29.89,-15.49 48.42,-46.12 48.42,-79.76l0 -564.54c0,-34.34 -19.09,-65.12 -49.73,-80.47 -30.64,-15.39 -66.77,-12.15 -94.17,8.54l-208.43 156.15 -95.95 0c-52.6,0 -95.48,42.74 -95.48,95.48l0 215.97c-0.05,52.6 42.84,95.39 95.44,95.39l0 0zm-23.42 -311.36c0,-12.86 10.46,-23.41 23.41,-23.41l107.96 0c7.79,0 15.39,-2.53 21.63,-7.23l217.99 -163.46c8.07,-6.01 15.72,-3.14 18.72,-1.69 3,1.45 9.85,6.01 9.85,15.95l0 564.54c0,9.85 -6.71,14.4 -9.62,15.86 -2.86,1.45 -10.46,4.46 -18.49,-1.22l-219.4 -153.57c-6.01,-4.22 -13.23,-6.47 -20.65,-6.47l-107.96 0c-12.86,0 -23.41,-10.47 -23.41,-23.41l-0.04 -215.89z"/>
  <path class="fil0" d="M622.92 553.89c7.09,6.95 16.33,10.55 25.48,10.55 9.15,0 18.49,-3.47 25.48,-10.55 97.03,-97.03 97.03,-255.1 0,-352.18 -14.08,-14.08 -36.88,-14.08 -50.91,0 -14.08,14.08 -14.08,36.88 0,50.91 33.41,33.41 51.89,77.84 51.89,125.18 0,47.34 -18.39,91.78 -51.89,125.18 -14.12,14.03 -14.12,36.83 -0.05,50.91l0 -0.01z"/>
 </g>
</svg>
