<?xml version="1.0" encoding="UTF-8"?>
<!DOCTYPE svg PUBLIC "-//W3C//DTD SVG 1.1//EN" "http://www.w3.org/Graphics/SVG/1.1/DTD/svg11.dtd">
<!-- Creator: CorelDRAW -->
<svg xmlns="http://www.w3.org/2000/svg" xml:space="preserve" width="1.88422in" height="1.88424in" version="1.1" style="shape-rendering:geometricPrecision; text-rendering:geometricPrecision; image-rendering:optimizeQuality; fill-rule:evenodd; clip-rule:evenodd"
viewBox="0 0 2678.93 2678.96"
 xmlns:xlink="http://www.w3.org/1999/xlink"
 xmlns:xodm="http://www.corel.com/coreldraw/odm/2003">
 <defs>
  <style type="text/css">
   <![CDATA[
    .fil0 {fill:black;fill-rule:nonzero}
   ]]>
  </style>
 </defs>
 <g id="Layer_x0020_1">
  <metadata id="CorelCorpID_0Corel-Layer"/>
  <path class="fil0" d="M373.19 2093.25l345.98 0 753.16 527.2c55.15,38.67 119.7,58.51 184.77,58.51 50.77,0 102.05,-12.1 148.95,-36.65 107.1,-55.49 173.5,-165.25 173.5,-285.8l0 -173.64 447.19 447.37c136.88,136.99 349.5,-55.19 202.45,-202.34l-649.64 -649.93 0 -1444.22c0,-123.06 -68.41,-233.34 -178.2,-288.32 -109.78,-55.15 -239.23,-43.55 -337.41,30.6l-677.92 507.89 -541.69 -541.94c-26.83,-26.83 -63.19,-41.98 -101.18,-41.98 -37.98,0 -74.44,15.15 -101.28,41.98 -26.83,26.83 -41.88,63.19 -41.88,101.18 0,37.98 15.04,74.44 41.88,101.28l390.93 391.09 -59.47 0c-188.46,0 -342.11,153.15 -342.11,342.11l0 773.82c-0.17,188.46 153.48,341.78 341.95,341.78l0.02 0.02zm317.74 -1199.5l1030.03 1030.45 0 431.83c0,35.3 -24.04,51.61 -34.47,56.81 -10.25,5.21 -37.49,15.98 -66.24,-4.37l-786.13 -550.24c-21.52,-15.13 -47.42,-23.2 -73.98,-23.2l-386.83 0c-46.07,0 -83.88,-37.5 -83.88,-83.88l-0.15 -773.53c0,-46.06 37.49,-83.88 83.88,-83.88l317.75 0zm1030.03 625.53l-750.66 -750.99 648.28 -486.13c28.92,-21.52 56.31,-11.26 67.08,-6.05 10.75,5.21 35.3,21.52 35.3,57.16l0 1186.01z"/>
 </g>
</svg>
